<?xml version="1.0" encoding="UTF-8"?>
<svg id="_레이어_1" data-name="레이어 1" xmlns="http://www.w3.org/2000/svg" viewBox="0 0 307.66 57.51">
  <defs>
    <style>
      .cls-1 {
        fill: #c8ff3d;
      }

      .cls-2 {
        fill: #fff;
      }
    </style>
  </defs>
  <path class="cls-2" d="M27.37,14.71c-.39-4.54-3.28-6.81-8.67-6.81-2.31,0-4.12.46-5.43,1.38s-1.96,2.2-1.96,3.82c0,.56.09,1.05.26,1.48.17.43.49.82.96,1.19s.94.66,1.41.9c.47.24,1.17.49,2.09.77.92.28,1.76.52,2.51.74.75.21,1.81.49,3.18.83,1.37.34,2.57.66,3.6.96,4.5,1.29,7.85,2.89,10.06,4.82s3.31,4.69,3.31,8.29c0,2.61-.54,4.89-1.61,6.84s-2.52,3.49-4.34,4.63c-1.82,1.14-3.81,1.97-5.98,2.51-2.16.54-4.47.8-6.91.8-6.21,0-11.06-1.42-14.55-4.27S.04,36.73,0,31.55h9.96c.17,5.74,3.62,8.61,10.34,8.61,2.61,0,4.68-.55,6.2-1.64,1.52-1.09,2.28-2.58,2.28-4.47,0-1.58-.7-2.74-2.09-3.47-1.39-.73-4.32-1.73-8.77-3.02-.26-.04-.45-.09-.58-.13s-.3-.1-.51-.16c-.21-.06-.41-.12-.58-.16-1.54-.43-2.61-.74-3.21-.93s-1.55-.52-2.86-1c-1.31-.47-2.26-.9-2.86-1.29-.6-.39-1.34-.92-2.22-1.61-.88-.69-1.51-1.4-1.9-2.15-.39-.75-.74-1.67-1.06-2.76-.32-1.09-.48-2.28-.48-3.57,0-4.16,1.61-7.48,4.82-9.96C9.7,1.37,13.96.13,19.28.13s9.34,1.21,12.59,3.63c3.26,2.42,4.93,6.07,5.01,10.96h-9.51Z"/>
  <path class="cls-2" d="M77.36,42.86c-3.51,3.38-8.33,5.08-14.46,5.08-6.64,0-11.98-2.2-16.03-6.59-4.05-4.39-6.07-10.21-6.07-17.45,0-6.85,2.05-12.55,6.14-17.09C51.03,2.27,56.48,0,63.29,0c5.44,0,10,1.54,13.69,4.63,3.68,3.08,5.72,7,6.1,11.76h-9.83c-.51-2.53-1.66-4.49-3.44-5.88-1.78-1.39-4.02-2.09-6.71-2.09s-5.13.78-7.04,2.35-3.25,3.48-4.02,5.75c-.77,2.27-1.16,4.75-1.16,7.45,0,4.71,1.09,8.47,3.28,11.28,2.18,2.81,5.12,4.21,8.8,4.21,6.13,0,9.62-3.43,10.47-10.28h9.96c-.51,5.74-2.53,10.3-6.04,13.69Z"/>
  <path class="cls-2" d="M122.28,9.32h-24.35v9.96h22.36v7.9h-22.36v11.24h24.8v8.42h-34.76V1.09h34.31v8.22Z"/>
  <path class="cls-2" d="M127.42,1.09h10.22l18.83,30.65V1.09h9.64v45.75h-10.02l-18.96-30.71v30.71h-9.7V1.09Z"/>
  <path class="cls-2" d="M207.16,9.32h-24.35v9.96h22.36v7.9h-22.36v11.24h24.8v8.42h-34.76V1.09h34.31v8.22Z"/>
  <path class="cls-1" d="M221.81,24.16h-10.15v-10.02h10.15v10.02ZM221.94,44.98c0,3.73-.82,6.61-2.47,8.64s-4.21,3.33-7.68,3.89v-4.5c2.87-.86,4.39-2.91,4.56-6.17h-4.56v-10.02h10.15v8.16Z"/>
  <path class="cls-2" d="M262.29,9.32h-24.35v9.96h22.36v7.9h-22.36v11.24h24.8v8.42h-34.76V1.09h34.31v8.22Z"/>
  <path class="cls-2" d="M290.57,1.09c4.54,0,8.25,1.07,11.12,3.21,2.87,2.14,4.3,5.4,4.3,9.77,0,2.66-.64,4.98-1.93,6.97-1.29,1.99-3.06,3.42-5.33,4.27,3.94.81,6.19,4.37,6.75,10.67,0,.21.04.88.13,1.99.09,1.11.17,2,.26,2.67.08.66.19,1.47.32,2.41.13.94.32,1.73.58,2.38.26.64.56,1.11.9,1.41h-10.41c-.34-.69-.6-1.55-.77-2.6-.17-1.05-.32-2.4-.45-4.05-.13-1.65-.19-2.56-.19-2.73-.34-3.21-1.15-5.44-2.41-6.68-1.26-1.24-3.5-1.86-6.71-1.86h-8.93v17.93h-9.96V1.09h22.75ZM277.78,21.65h9.51c2.78,0,4.96-.44,6.52-1.32,1.56-.88,2.34-2.6,2.34-5.17,0-2.4-.76-4.03-2.28-4.88-1.52-.86-3.57-1.29-6.14-1.29h-9.96v12.66Z"/>
</svg>